<svg width="323" height="323" viewBox="0 0 323 323" fill="none" xmlns="http://www.w3.org/2000/svg">
<g opacity="0.2">
<path d="M34.6069 242.25H288.393V288.393C288.393 294.512 285.962 300.38 281.635 304.707C277.308 309.034 271.44 311.464 265.321 311.464H57.6784C51.5594 311.464 45.6911 309.034 41.3644 304.707C37.0377 300.38 34.6069 294.512 34.6069 288.393V242.25Z" stroke="black" stroke-linecap="round" stroke-linejoin="round"/>
<path d="M242.25 149.964C236.131 149.964 230.263 147.533 225.936 143.207C221.609 138.88 219.178 133.012 219.178 126.893V69.2142C219.178 53.9169 213.102 39.2461 202.285 28.4293C191.468 17.6125 176.797 11.5356 161.5 11.5356C146.203 11.5356 131.532 17.6125 120.715 28.4293C109.898 39.2461 103.821 53.9169 103.821 69.2142V126.893C103.821 133.012 101.391 138.88 97.0639 143.207C92.7372 147.533 86.8689 149.964 80.7499 149.964H57.6785C45.4407 149.964 33.704 154.826 25.0506 163.479C16.3971 172.133 11.5356 183.869 11.5356 196.107V219.178C11.5356 225.297 13.9664 231.166 18.2931 235.492C22.6198 239.819 28.4881 242.25 34.6071 242.25H288.393C294.512 242.25 300.38 239.819 304.707 235.492C309.033 231.166 311.464 225.297 311.464 219.178V196.107C311.464 183.869 306.603 172.133 297.949 163.479C289.296 154.826 277.559 149.964 265.321 149.964H242.25Z" stroke="black" stroke-linecap="round" stroke-linejoin="round"/>
</g>
</svg>
