<svg width="343" height="343" viewBox="0 0 343 343" fill="none" xmlns="http://www.w3.org/2000/svg">
<g opacity="0.2">
<path d="M86.9751 12.25H25.7251C18.9596 12.25 13.4751 17.7345 13.4751 24.5V318.5C13.4751 325.265 18.9596 330.75 25.7251 330.75H86.9751C93.7406 330.75 99.2251 325.265 99.2251 318.5V24.5C99.2251 17.7345 93.7406 12.25 86.9751 12.25Z" stroke="white" stroke-linecap="round" stroke-linejoin="round"/>
<path d="M172.725 61.25H111.475C104.71 61.25 99.2251 66.7345 99.2251 73.5V318.5C99.2251 325.266 104.71 330.75 111.475 330.75H172.725C179.491 330.75 184.975 325.266 184.975 318.5V73.5C184.975 66.7345 179.491 61.25 172.725 61.25Z" stroke="white" stroke-linecap="round" stroke-linejoin="round"/>
<path d="M254.716 54.5428L207.182 66.4384C200.619 68.0809 196.63 74.7328 198.272 81.2959L257.751 318.967C259.393 325.53 266.045 329.519 272.608 327.876L320.142 315.98C326.705 314.338 330.694 307.686 329.052 301.123L269.573 63.4524C267.931 56.8893 261.279 52.9003 254.716 54.5428Z" stroke="white" stroke-linecap="round" stroke-linejoin="round"/>
<path d="M13.4751 245H99.2251" stroke="white" stroke-linecap="round" stroke-linejoin="round"/>
<path d="M99.2251 220.5H184.975" stroke="white" stroke-linecap="round" stroke-linejoin="round"/>
<path d="M246.225 269.5L316.785 251.86" stroke="white" stroke-linecap="round" stroke-linejoin="round"/>
</g>
</svg>
